<svg xmlns="http://www.w3.org/2000/svg" width="54.045" height="53.581" viewBox="0 0 54.045 53.581"><g id="Calling" transform="translate(1.76 1.75)"><path id="Stroke_1" data-name="Stroke 1" d="M-2378.928,1885.753c.833-1.383,5.429-6.4,8.7-6.256a4.324,4.324,0,0,1,2.548,1.366h0a44.448,44.448,0,0,1,6.5,8.8c.645,3.078-3.028,4.854-1.917,7.959a26.022,26.022,0,0,0,14.808,14.8c3.1,1.125,4.878-2.544,7.956-1.906a44.457,44.457,0,0,1,8.8,6.5h0a4.323,4.323,0,0,1,1.363,2.548c.121,3.45-5.21,8.109-6.249,8.7-2.45,1.755-5.65,1.723-9.55-.09-10.873-4.519-28.266-21.583-32.878-32.868C-2380.6,1891.422-2380.723,1888.193-2378.928,1885.753Z" transform="translate(2380.22 -1879.493)" fill="none" stroke="#200e32" stroke-linecap="round" stroke-linejoin="round" stroke-width="3.5"></path><path id="Path" d="M-2341.694,1880.3a21.005,21.005,0,0,1,18.556,18.532" transform="translate(2373.489 -1879.634)" fill="none" stroke="#435fcb" stroke-linecap="round" stroke-linejoin="round" stroke-width="3.5"></path><path id="Path-2" d="M-2341.694,1891.609a11.665,11.665,0,0,1,9.224,9.224" transform="translate(2373.489 -1881.61)" fill="none" stroke="#435fcb" stroke-linecap="round" stroke-linejoin="round" stroke-width="3.5"></path></g></svg>