<svg xmlns="http://www.w3.org/2000/svg" width="59.304" height="72.003" viewBox="0 0 59.304 72.003"><g id="Group_172" data-name="Group 172" transform="translate(1.75 1.75)"><g id="Group_171" data-name="Group 171" transform="translate(14.207 0)"><path id="Rectangle_48" data-name="Rectangle 48" d="M6.848,0h0A6.848,6.848,0,0,1,13.7,6.848V13.7a0,0,0,0,1,0,0H6.848A6.848,6.848,0,0,1,0,6.848v0A6.848,6.848,0,0,1,6.848,0Z" fill="none" stroke="#435fcb" stroke-linecap="round" stroke-linejoin="round" stroke-width="3.5"></path><path id="Path_27" data-name="Path 27" d="M-2171.967,1875.088a.894.894,0,0,0,.894.894h5.953a6.848,6.848,0,0,0,6.848-6.847h0a6.849,6.849,0,0,0-6.848-6.848h0a6.823,6.823,0,0,0-3.311.852" transform="translate(2185.663 -1862.286)" fill="none" stroke="#435fcb" stroke-linecap="round" stroke-linejoin="round" stroke-width="3.5"></path></g><path id="Path_28" data-name="Path 28" d="M-2197.49,1904.35v19.5a9.989,9.989,0,0,0,9.99,9.989h27.364a9.989,9.989,0,0,0,9.989-9.989v-19.5" transform="translate(2201.721 -1865.338)" fill="none" stroke="#200e32" stroke-linecap="round" stroke-linejoin="round" stroke-width="3.5"></path><path id="Path_29" data-name="Path 29" d="M-2202.052,1890.283v6.986a5.18,5.18,0,0,0,5.18,5.18h45.445a5.179,5.179,0,0,0,5.179-5.18v-6.986a5.179,5.179,0,0,0-5.179-5.18h-45.445A5.18,5.18,0,0,0-2202.052,1890.283Z" transform="translate(2202.052 -1863.942)" fill="none" stroke="#200e32" stroke-linecap="round" stroke-linejoin="round" stroke-width="3.5"></path><line id="Line_10" data-name="Line 10" y2="13.027" transform="translate(27.902 46.585)" fill="none" stroke="#435fcb" stroke-linecap="round" stroke-linejoin="round" stroke-width="3.5"></line></g></svg>