<svg xmlns="http://www.w3.org/2000/svg" width="51.282" height="50.539" viewBox="0 0 51.282 50.539"><g id="Group_168" data-name="Group 168" transform="translate(2.475 1.75)"><g id="Group_167" data-name="Group 167" transform="translate(0.019)"><path id="Path_19" data-name="Path 19" d="M-2251.977,1882.835h13.594a9.925,9.925,0,0,1,9.925,9.925v19.832" transform="translate(2275.496 -1882.835)" fill="none" stroke="#200e32" stroke-linecap="round" stroke-linejoin="round" stroke-width="3.5"></path><path id="Path_20" data-name="Path 20" d="M-2229.071,1926.561a9.928,9.928,0,0,1-2.26,3.544,9.9,9.9,0,0,1-7.052,2.941h-13.594" transform="translate(2275.496 -1886.007)" fill="none" stroke="#435fcb" stroke-linecap="round" stroke-linejoin="round" stroke-width="3.5"></path><path id="Path_21" data-name="Path 21" d="M-2253.817,1931.232h-13.595a9.926,9.926,0,0,1-9.925-9.926v-19.752" transform="translate(2277.336 -1884.193)" fill="none" stroke="#435fcb" stroke-linecap="round" stroke-linejoin="round" stroke-width="3.5"></path><path id="Path_22" data-name="Path 22" d="M-2253.769,1882.835h-13.595a9.9,9.9,0,0,0-7.051,2.94,9.934,9.934,0,0,0-2.261,3.544" transform="translate(2277.288 -1882.835)" fill="none" stroke="#200e32" stroke-linecap="round" stroke-linejoin="round" stroke-width="3.5"></path><path id="Path_23" data-name="Path 23" d="M-2245.961,1907.212l-6.526-3.463-6.526,3.463v-24.377h13.052Z" transform="translate(2276.007 -1882.835)" fill="none" stroke="#200e32" stroke-linecap="round" stroke-linejoin="round" stroke-width="3.5"></path><path id="Path_24" data-name="Path 24" d="M-2232.783,1910.392l5.718,5.869v-6.072" transform="translate(2274.104 -1884.82)" fill="none" stroke="#200e32" stroke-linecap="round" stroke-linejoin="round" stroke-width="3.5"></path></g><line id="Line_7" data-name="Line 7" x1="5.543" y1="5.69" transform="translate(0 16.339)" fill="none" stroke="#435fcb" stroke-linecap="round" stroke-linejoin="round" stroke-width="3.5"></line></g></svg>